<!DOCTYPE svg PUBLIC "-//W3C//DTD SVG 1.1//EN" "http://www.w3.org/Graphics/SVG/1.1/DTD/svg11.dtd">
<!-- Uploaded to: SVG Repo, www.svgrepo.com, Transformed by: SVG Repo Mixer Tools -->
<svg height="256px" width="256px" version="1.1" id="Layer_1" xmlns="http://www.w3.org/2000/svg" xmlns:xlink="http://www.w3.org/1999/xlink" viewBox="-197.11 -197.11 842.19 842.19" xml:space="preserve" fill="#ffffff" stroke="#ffffff" stroke-width="0.00447974" transform="matrix(1, 0, 0, 1, 0, 0)rotate(0)">
<g id="SVGRepo_bgCarrier" stroke-width="0"/>
<g id="SVGRepo_tracerCarrier" stroke-linecap="round" stroke-linejoin="round" stroke="#CCCCCC" stroke-width="3.583792"/>
<g id="SVGRepo_iconCarrier"> <g> <path style="fill:#dedede;" d="M62.513,191.264c-0.009-0.525-0.02-1.049-0.02-1.575c0-50.155,40.659-90.814,90.814-90.814 c43.222,0,79.388,30.196,88.562,70.643c8.555-4.789,18.409-7.531,28.91-7.531c32.766,0,59.328,26.562,59.328,59.328 c0,1.339-0.06,2.664-0.148,3.981c24.325,9.03,41.661,32.444,41.661,59.911c0,35.286-28.605,63.892-63.892,63.892H79.865 C35.757,349.099,0,313.341,0,269.234C0,231.085,26.749,199.188,62.513,191.264z"/> <path style="fill:#1a2e32;" d="M447.974,255.535c0,40.56-32.88,73.44-73.44,73.44h-3.62c8.64-12.43,13.71-27.52,13.71-43.77 c0-28.87-16.41-55.28-41.65-68.34c-2.31-37.82-33.81-67.88-72.19-67.88c-7.04,0-14.03,1.04-20.73,3.04 c-2.67-6.82-6.05-13.35-10.08-19.46c15.22-20.44,39.57-33.69,67.02-33.69c46.12,0,83.51,37.39,83.51,83.51 c0,0.49-0.01,0.97-0.02,1.45C423.374,191.124,447.974,220.454,447.974,255.535z"/> </g> </g>
</svg>